<?xml version="1.0" encoding="UTF-8"?>
<!-- Square hero still (1:1) — the dummy photo the hero opens on, before it
     reshapes to 16:9 and plays. 1000x1000 so it drops straight into the
     square frame with no crop and no layout shift. Monochrome + grid, matching
     the theme's own pattern language. Swap for a real portrait when there is
     one; nothing else needs to change. -->
<svg xmlns="http://www.w3.org/2000/svg" viewBox="0 0 1000 1000" width="1000" height="1000" role="img" aria-labelledby="hs-title">
	<title id="hs-title">Swarnil — portrait frame</title>
	<defs>
		<pattern id="hs-grid" width="50" height="50" patternUnits="userSpaceOnUse">
			<path d="M50 0H0V50" fill="none" stroke="#d4d4d8" stroke-width="1" />
		</pattern>
		<radialGradient id="hs-bg" cx="50%" cy="42%" r="78%">
			<stop offset="0%" stop-color="#fafafa" />
			<stop offset="100%" stop-color="#e4e4e7" />
		</radialGradient>
		<linearGradient id="hs-fade" x1="0" y1="0" x2="0" y2="1">
			<stop offset="55%" stop-color="#18181b" stop-opacity="0" />
			<stop offset="100%" stop-color="#18181b" stop-opacity="0.55" />
		</linearGradient>
	</defs>

	<rect width="1000" height="1000" fill="url(#hs-bg)" />
	<rect width="1000" height="1000" fill="url(#hs-grid)" opacity="0.5" />

	<!-- a figure, framed: shoulders + head, rule-of-thirds -->
	<g>
		<circle cx="500" cy="392" r="118" fill="#18181b" />
		<path d="M262 780c0-131 107-238 238-238s238 107 238 238v96H262z" fill="#18181b" />
		<!-- the camera they're holding -->
		<g transform="translate(614 606)">
			<rect x="-70" y="-44" width="132" height="88" rx="16" fill="#fafafa" />
			<path d="M62 -20 108 -44v88L62 20Z" fill="#fafafa" />
			<circle cx="-22" cy="0" r="24" fill="none" stroke="#18181b" stroke-width="7" />
			<circle cx="-22" cy="0" r="7" fill="#18181b" />
			<circle cx="34" cy="-26" r="6" fill="#e11d48" />
		</g>
	</g>

	<rect width="1000" height="1000" fill="url(#hs-fade)" />

	<!-- rule-of-thirds guides, faint -->
	<g stroke="#18181b" stroke-opacity="0.12" stroke-width="2">
		<path d="M333 0V1000M667 0V1000M0 333H1000M0 667H1000" />
	</g>

	<text x="500" y="936" text-anchor="middle" font-family="ui-monospace, SFMono-Regular, monospace" font-size="21" letter-spacing="10" fill="#fafafa" opacity="0.8">FRAME 1:1</text>
</svg>
