<svg xmlns="http://www.w3.org/2000/svg" viewBox="0 0 48 48">
	<rect x="1.5" y="1.5" width="45" height="45" rx="13" fill="#18181b"/>
	<g stroke="#fafafa" stroke-width="2.6" stroke-linecap="round" opacity=".65" fill="none">
		<path d="M9 14v-2a3 3 0 0 1 3-3h2"/><path d="M39 14v-2a3 3 0 0 0-3-3h-2"/>
		<path d="M9 34v2a3 3 0 0 0 3 3h2"/><path d="M39 34v2a3 3 0 0 1-3 3h-2"/>
	</g>
	<path d="M32.5 16.5c-1.2-2.4-4-3.8-8-3.8-4.8 0-8.2 2.3-8.2 6 0 7.6 16.6 3.6 16.6 11.6 0 3.9-3.6 6.2-8.6 6.2-4.4 0-7.4-1.6-8.8-4.3" stroke="#fafafa" stroke-width="3.4" stroke-linecap="round" fill="none"/>
	<circle cx="37" cy="11" r="2.4" fill="#ef4444"/>
</svg>
