<?xml version="1.0" encoding="UTF-8"?>
<svg version="1.1" xmlns="http://www.w3.org/2000/svg" width="460" height="460">
<path d="M0 0 C6.41108017 3.20554009 12.61507155 6.40752882 18.75 10.0625 C19.46542969 10.48337891 20.18085938 10.90425781 20.91796875 11.33789062 C24.11421677 13.2292484 27.2614583 15.15028609 30.328125 17.24609375 C32.93525003 19.12077396 32.93525003 19.12077396 36 20 C36 20.66 36 21.32 36 22 C36.52464844 22.07863281 37.04929687 22.15726563 37.58984375 22.23828125 C40.9549452 23.30180602 43.65923455 25.2362871 46.5625 27.1875 C53.79594458 31.94874265 61.23838748 36.15496154 69 40 C69 40.66 69 41.32 69 42 C69.99 42 70.98 42 72 42 C72 42.66 72 43.32 72 44 C73.11375 44.185625 73.11375 44.185625 74.25 44.375 C76.80141485 44.95486701 78.7267573 45.73708739 81 47 C81 47.66 81 48.32 81 49 C82.30324219 49.37511719 82.30324219 49.37511719 83.6328125 49.7578125 C87.17695498 51.06528037 89.79088709 52.70712222 92.875 54.875 C96.89220415 57.63093115 100.80386444 60.01335511 105.20703125 62.07421875 C107.12377677 63.06391088 108.77015865 64.21330902 110.5 65.5 C112.80240321 67.20873422 115.03561235 68.58281172 117.625 69.8125 C126.20348623 73.92684194 134.21444249 79.32962971 142 84.7734375 C144.24922013 86.15284204 146.53056529 87.08253641 149 88 C149 88.66 149 89.32 149 90 C149.5887793 90.12383057 150.17755859 90.24766113 150.78417969 90.37524414 C154.31147422 91.36977331 157.20426923 93.45963215 160.25 95.4375 C160.8996875 95.84548828 161.549375 96.25347656 162.21875 96.67382812 C163.85109284 97.72490602 165.43086118 98.85671035 167 100 C167 100.66 167 101.32 167 102 C165.58847656 102.79664063 165.58847656 102.79664063 164.1484375 103.609375 C162.89055828 104.32279904 161.63274953 105.03634735 160.375 105.75 C159.75753906 106.09804687 159.14007813 106.44609375 158.50390625 106.8046875 C154.55348501 109.0501901 150.77635156 111.46842635 147 114 C145.57361449 114.81152125 144.13686923 115.60527849 142.6875 116.375 C138.57242084 118.61009376 134.7591709 121.14983719 130.9453125 123.86328125 C129 125 129 125 126 125 C126 125.66 126 126.32 126 127 C124.21118264 128.00508801 122.41885304 129.00392736 120.625 130 C119.62726563 130.556875 118.62953125 131.11375 117.6015625 131.6875 C115 133 115 133 113 133 C113 150.49 113 167.98 113 186 C104.09 186 95.18 186 86 186 C85.42099927 180.78899344 84.87393271 175.84587826 84.68359375 170.65234375 C84.62075195 169.00395508 84.62075195 169.00395508 84.55664062 167.32226562 C84.51732422 166.20529297 84.47800781 165.08832031 84.4375 163.9375 C84.37272461 162.20983398 84.37272461 162.20983398 84.30664062 160.44726562 C84.20149148 157.63160509 84.09934607 154.81587024 84 152 C76.58134046 156.21174619 69.18190249 160.44079766 61.890625 164.87109375 C60 166 60 166 58 167 C57.67 173.27 57.34 179.54 57 186 C47 186 37 186 27 186 C25.24287596 187.0373734 23.51821724 188.13010841 21.8125 189.25 C9.81807809 197 9.81807809 197 6 197 C6 197.66 6 198.32 6 199 C5.37996094 199.32871094 4.75992188 199.65742188 4.12109375 199.99609375 C-5.73816439 205.29167781 -15.50204804 210.87303818 -24.75 217.1875 C-28.69298453 219.87255476 -32.80513018 222.107668 -37.015625 224.34375 C-41.54767632 226.85891984 -45.88894108 229.66189247 -50.25 232.4609375 C-53 234 -53 234 -56 234 C-56 163.38 -56 92.76 -56 20 C-51.83364279 20.83327144 -50.11914631 21.285702 -46.75 23.3984375 C-45.58984375 24.11773437 -45.58984375 24.11773437 -44.40625 24.8515625 C-43.6121875 25.35429687 -42.818125 25.85703125 -42 26.375 C-40.41668185 27.36200352 -38.83334892 28.34898334 -37.25 29.3359375 C-36.55390625 29.77470215 -35.8578125 30.2134668 -35.140625 30.66552734 C-34.43421875 31.10590332 -33.7278125 31.5462793 -33 32 C-31.83561401 32.80908813 -31.83561401 32.80908813 -30.64770508 33.63452148 C-27.39769397 35.31062219 -25.03291657 35.42847222 -21.38671875 35.51171875 C-20.26225342 35.54483154 -19.13778809 35.57794434 -17.97924805 35.61206055 C-15.85483276 35.64940308 -15.85483276 35.64940308 -13.6875 35.6875 C-6.9121875 35.8421875 -6.9121875 35.8421875 0 36 C0 24.12 0 12.24 0 0 Z " fill="#E13834" transform="translate(203,134)"/>
<path d="M0 0 C8.91 0 17.82 0 27 0 C27.02311759 19.40991453 27.0409785 38.81982519 27.05181217 58.22975063 C27.05697542 67.24146937 27.06401866 76.25317942 27.07543945 85.26489258 C27.08538541 93.1165955 27.09185322 100.96829214 27.09408849 108.82000118 C27.09539575 112.98003452 27.09848255 117.14004985 27.10573006 121.30007744 C27.11248889 125.21108412 27.11461724 129.12206527 27.11310768 133.03307724 C27.11338407 134.47267228 27.11539001 135.91226813 27.11920547 137.35185814 C27.12414051 139.30894233 27.12239807 141.26604004 27.12025452 143.22312927 C27.12117631 144.32098472 27.1220981 145.41884016 27.12304783 146.54996395 C27 149 27 149 26 150 C17.42 150 8.84 150 0 150 C0 100.5 0 51 0 0 Z " fill="#FEFAFA" transform="translate(177,170)"/>
<path d="M0 0 C9.24 0 18.48 0 28 0 C28 43.89 28 87.78 28 133 C18.76 133 9.52 133 0 133 C0 89.11 0 45.22 0 0 Z " fill="#FDF6F6" transform="translate(232,187)"/>
<path d="M0 0 C8.91 0 17.82 0 27 0 C27 34.98 27 69.96 27 106 C18.42 106 9.84 106 1 106 C-0.125 97 -0.125 97 -0.12025452 93.31750488 C-0.12162918 92.48192047 -0.12300385 91.64633606 -0.12442017 90.78543091 C-0.12082489 89.89782074 -0.11722961 89.01021057 -0.11352539 88.09570312 C-0.11367142 87.138685 -0.11381744 86.18166687 -0.1139679 85.19564819 C-0.11327567 82.05749176 -0.10551576 78.91939596 -0.09765625 75.78125 C-0.09578962 73.5955 -0.09436687 71.40974959 -0.09336853 69.22399902 C-0.08956267 63.48985628 -0.07974896 57.75573913 -0.06866455 52.02160645 C-0.05840882 46.16284532 -0.05386201 40.30408003 -0.04882812 34.4453125 C-0.03812487 22.96352865 -0.0205438 11.48177046 0 0 Z " fill="#FEFDFD" transform="translate(288,213)"/>
<path d="M0 0 C4.7973478 0.88763023 7.84575052 2.47486796 12 5 C12 5.66 12 6.32 12 7 C12.99 7 13.98 7 15 7 C15 7.66 15 8.32 15 9 C15.78375 9.20625 16.5675 9.4125 17.375 9.625 C18.57125 10.07875 19.7675 10.5325 21 11 C22.24716797 11.39638672 22.24716797 11.39638672 23.51953125 11.80078125 C26.75881865 13.18091688 28.66133031 14.33842445 31 17 C32.29107919 23.15225272 31.94302615 29.12848634 31.625 35.375 C31.57480654 37.08190164 31.52918477 38.78894423 31.48828125 40.49609375 C31.37838489 44.66755252 31.20607411 48.83223033 31 53 C29.02 52.34 27.04 51.68 25 51 C25 50.34 25 49.68 25 49 C24.01 49 23.02 49 22 49 C22 48.34 22 47.68 22 47 C21.484375 46.91492188 20.96875 46.82984375 20.4375 46.7421875 C17.01531899 45.70017726 14.07140464 43.91772363 11 42.125 C10.38382813 41.77308594 9.76765625 41.42117187 9.1328125 41.05859375 C7.40790283 40.06288409 5.70321827 39.03237523 4 38 C3.27973633 37.6275415 2.55947266 37.25508301 1.81738281 36.87133789 C-0.52454189 34.45988533 -0.45459821 32.5980422 -0.45318604 29.32380676 C-0.43254089 28.57370834 -0.41189575 27.82360992 -0.390625 27.05078125 C-0.38496521 26.27816452 -0.37930542 25.50554779 -0.37347412 24.70951843 C-0.35109327 22.24321371 -0.30089703 19.77836508 -0.25 17.3125 C-0.22993706 15.63999495 -0.21168592 13.96746711 -0.1953125 12.29492188 C-0.15122331 8.19605404 -0.08218675 4.09827383 0 0 Z " fill="#DD3733" transform="translate(147,101)"/>
</svg>
